<svg xmlns="http://www.w3.org/2000/svg" xmlns:xlink="http://www.w3.org/1999/xlink" version="1.1" x="0px" y="0px" viewBox="0 0 90 112.5" enable-background="new 0 0 90 90" xml:space="preserve"><path fill="white" d="M80.712,55.491c-0.194,0-0.384,0.016-0.571,0.038l-3.096-5.959c0.735-0.83,1.185-1.92,1.185-3.117  c0-1.309-0.533-2.494-1.397-3.347c0.022-0.03,0.049-0.059,0.068-0.095l3.054-5.879c0.248,0.04,0.499,0.066,0.758,0.066  c2.602,0,4.707-2.108,4.707-4.707c0-2.599-2.105-4.707-4.707-4.707c-2.601,0-4.706,2.108-4.706,4.707  c0,1.457,0.662,2.758,1.702,3.622l-2.993,5.761c-0.008,0.009-0.008,0.018-0.012,0.027c-0.377-0.098-0.77-0.155-1.177-0.155  c-2.175,0-3.998,1.475-4.539,3.477c-0.004,0-0.008-0.003-0.008-0.003h-4.798c-0.545-2-2.369-3.474-4.54-3.474  c-0.297,0-0.586,0.031-0.868,0.084l-4.984-8.071c0.898-0.858,1.462-2.065,1.462-3.405c0-1.252-0.491-2.387-1.291-3.23  c0.023-0.024,0.042-0.043,0.062-0.07l2.117-3.428c0.479,0.166,0.998,0.261,1.534,0.261c2.602,0,4.707-2.107,4.707-4.707  c0-2.599-2.105-4.706-4.707-4.706c-2.597,0-4.706,2.106-4.706,4.706c0,1.168,0.43,2.234,1.131,3.057l-2.175,3.522  c-0.016,0.028-0.022,0.056-0.038,0.086c-0.423-0.127-0.872-0.197-1.341-0.197c-2.17,0-3.995,1.474-4.538,3.474h-9.6  c-0.542-2-2.367-3.474-4.537-3.474c-0.054,0-0.107,0.007-0.16,0.008l-2.79-4.516c0.804-0.845,1.301-1.985,1.301-3.244  c0-1.357-0.579-2.577-1.499-3.437l3.102-5.019c0.529,0.206,1.103,0.323,1.704,0.323c2.601,0,4.707-2.107,4.707-4.706  c0-2.6-2.106-4.707-4.707-4.707c-2.599,0-4.705,2.107-4.705,4.707c0,1.1,0.379,2.108,1.011,2.91l-3.296,5.337  c-0.33-0.072-0.672-0.114-1.024-0.114c-2.17,0-3.995,1.474-4.538,3.473h-5.116c-0.542-1.999-2.367-3.473-4.537-3.473  c-2.601,0-4.707,2.107-4.707,4.706c0,2.6,2.106,4.707,4.707,4.707c2.17,0,3.995-1.473,4.537-3.474h5.116  c0.543,2.001,2.367,3.474,4.538,3.474c0.451,0,0.885-0.067,1.298-0.185l2.474,4.003c-1.278,0.842-2.123,2.288-2.123,3.933  c0,1.345,0.567,2.556,1.474,3.414l-5.019,8.125c-0.368-0.092-0.75-0.146-1.146-0.146c-2.171,0-3.995,1.474-4.538,3.474h-4.107  c-0.543-2-2.367-3.474-4.538-3.474c-2.601,0-4.707,2.108-4.707,4.707c0,2.599,2.106,4.707,4.707,4.707  c2.171,0,3.995-1.474,4.538-3.476h4.107c0.542,2.002,2.367,3.476,4.538,3.476c0.417,0,0.818-0.06,1.203-0.162l4.884,7.905  c-0.862,0.854-1.396,2.036-1.396,3.344c0,1.137,0.404,2.181,1.074,2.993l-2.433,3.941c-0.389-0.103-0.792-0.164-1.213-0.164  c-2.171,0-3.995,1.475-4.538,3.474h-4.194c-0.541-1.999-2.365-3.474-4.538-3.474c-2.599,0-4.707,2.108-4.707,4.707  c0,2.598,2.108,4.707,4.707,4.707c2.172,0,3.997-1.474,4.538-3.473h4.194c0.543,1.999,2.367,3.473,4.538,3.473  c0.198,0,0.39-0.016,0.579-0.038l1.895,3.065c-0.95,0.86-1.55,2.103-1.55,3.484c0,2.598,2.108,4.707,4.707,4.707  c2.599,0,4.707-2.109,4.707-4.707c0-2.601-2.108-4.707-4.707-4.707c-0.328,0-0.646,0.035-0.954,0.096l-1.79-2.895  c1.106-0.86,1.82-2.201,1.82-3.713c0-1.291-0.52-2.458-1.359-3.309l2.317-3.751c0.504,0.183,1.045,0.289,1.615,0.289  c2.083,0,3.846-1.355,4.465-3.231h9.745c0.619,1.876,2.383,3.231,4.466,3.231c0.343,0,0.679-0.038,0.998-0.108l1.992,3.224  c-1.062,0.864-1.744,2.18-1.744,3.655c0,2.598,2.109,4.707,4.706,4.707c2.175,0,3.995-1.474,4.54-3.473H65.8  c0.545,1.999,2.368,3.473,4.539,3.473c2.601,0,4.707-2.109,4.707-4.707c0-2.599-2.106-4.707-4.707-4.707  c-2.171,0-3.994,1.475-4.539,3.474h-4.764c-0.545-1.999-2.365-3.474-4.54-3.474c-0.231,0-0.457,0.023-0.682,0.056l-2.083-3.372  c0.934-0.86,1.52-2.087,1.52-3.454c0-1.401-0.616-2.656-1.588-3.519l4.775-7.73c0.385,0.103,0.788,0.162,1.203,0.162  c2.171,0,3.995-1.474,4.54-3.476h4.798c0,0,0.004-0.002,0.008-0.002c0.541,2.002,2.364,3.478,4.539,3.478  c0.503,0,0.99-0.082,1.447-0.23l2.875,5.541c-1.12,0.858-1.843,2.208-1.843,3.728c0,2.602,2.105,4.707,4.706,4.707  c2.602,0,4.707-2.105,4.707-4.707C85.419,57.602,83.313,55.491,80.712,55.491z M50.544,26.944c1.886,0,3.409,1.526,3.409,3.41  c0,1.882-1.523,3.409-3.409,3.409c-1.885,0-3.408-1.527-3.408-3.409C47.136,28.47,48.659,26.944,50.544,26.944z M28.458,30.354  c0-1.883,1.525-3.41,3.41-3.41c1.883,0,3.408,1.526,3.408,3.41c0,1.882-1.525,3.409-3.408,3.409  C29.983,33.763,28.458,32.235,28.458,30.354z M19.062,46.453c0-1.883,1.525-3.409,3.409-3.409c1.883,0,3.41,1.526,3.41,3.409  c0,1.883-1.527,3.41-3.41,3.41C20.587,49.863,19.062,48.336,19.062,46.453z M31.869,65.655c-1.885,0-3.41-1.527-3.41-3.408  c0-1.883,1.525-3.41,3.41-3.41c1.883,0,3.408,1.527,3.408,3.41C35.277,64.128,33.751,65.655,31.869,65.655z M53.953,62.247  c0,1.881-1.523,3.408-3.409,3.408c-1.885,0-3.408-1.527-3.408-3.408c0-1.883,1.523-3.41,3.408-3.41  C52.43,58.837,53.953,60.364,53.953,62.247z M50.544,57.54c-2.258,0-4.146,1.594-4.601,3.717h-9.475  c-0.455-2.123-2.342-3.717-4.6-3.717c-0.404,0-0.791,0.056-1.164,0.15l-4.894-7.923c0.844-0.851,1.365-2.021,1.365-3.314  c0-1.314-0.541-2.501-1.407-3.355l5.042-8.162c0.339,0.078,0.693,0.123,1.057,0.123c2.17,0,3.995-1.473,4.537-3.473h9.6  c0.543,2,2.368,3.473,4.538,3.473c0.37,0,0.728-0.045,1.07-0.126l4.932,7.982c-0.986,0.862-1.61,2.126-1.61,3.539  c0,1.293,0.521,2.464,1.367,3.314l-4.855,7.86C51.153,57.571,50.853,57.54,50.544,57.54z M59.642,49.863  c-1.885,0-3.408-1.527-3.408-3.41c0-1.057,0.491-1.99,1.245-2.616c0.016-0.005,0.031-0.004,0.042-0.012l0.872-0.538  c0.389-0.153,0.808-0.244,1.249-0.244c1.882,0,3.408,1.526,3.408,3.409C63.05,48.336,61.523,49.863,59.642,49.863z M70.114,46.453  c0-1.883,1.527-3.409,3.412-3.409c1.881,0,3.408,1.526,3.408,3.409c0,1.883-1.527,3.41-3.408,3.41  C71.642,49.863,70.114,48.336,70.114,46.453z"/></svg>