<svg xmlns="http://www.w3.org/2000/svg" xmlns:xlink="http://www.w3.org/1999/xlink" version="1.1" x="0px" y="0px" viewBox="0 0 73 91.25" enable-background="new 0 0 73 73" xml:space="preserve"><g><path d="M8.5,49.9v-4.7l7.1-7.1c0.4-0.4,0.6-0.9,0.6-1.4V31c0-0.5-0.2-1-0.6-1.4l-3.2-3.2c0.4-0.8,0.6-1.7,0.6-2.6c0-3.3-2.7-6-6-6   c-3.3,0-6,2.7-6,6s2.7,6,6,6c0.9,0,1.8-0.2,2.5-0.6l2.6,2.6v4L5.1,43c-0.4,0.4-0.6,0.9-0.6,1.4v5.6c-2.3,0.8-4,3-4,5.6   c0,3.3,2.7,6,6,6c3.3,0,6-2.7,6-6C12.5,53,10.8,50.8,8.5,49.9z M7.1,25.7c-1.1,0-2-0.9-2-2c0-1.1,0.9-2,2-2s2,0.9,2,2   C9.1,24.8,8.2,25.7,7.1,25.7z M6.5,57.6c-1.1,0-2-0.9-2-2c0-1.1,0.9-2,2-2c1.1,0,2,0.9,2,2C8.5,56.7,7.6,57.6,6.5,57.6z" fill="white"/><path d="M25.2,0.5c-3.3,0-6,2.7-6,6c0,2.6,1.7,4.8,4,5.6v33.2l-5.1,5.1c-0.4,0.4-0.6,0.9-0.6,1.4v9c-2.3,0.8-4,3-4,5.6   c0,3.3,2.7,6,6,6c3.3,0,6-2.7,6-6c0-2.6-1.7-4.8-4-5.6v-8.1l5.1-5.1c0.4-0.4,0.6-0.9,0.6-1.4v-34c2.3-0.8,4-3,4-5.6   C31.2,3.2,28.5,0.5,25.2,0.5z M19.5,68.5c-1.1,0-2-0.9-2-2c0-1.1,0.9-2,2-2c1.1,0,2,0.9,2,2C21.5,67.6,20.6,68.5,19.5,68.5z    M25.2,8.5c-1.1,0-2-0.9-2-2c0-1.1,0.9-2,2-2c1.1,0,2,0.9,2,2C27.2,7.6,26.3,8.5,25.2,8.5z" fill="white"/><path d="M41.8,33.7c0-3.3-2.7-6-6-6c-3.3,0-6,2.7-6,6c0,2.6,1.7,4.8,4,5.6v21.5c-2.3,0.8-4,3-4,5.6c0,3.3,2.7,6,6,6   c3.3,0,6-2.7,6-6c0-2.6-1.7-4.8-4-5.7V39.4C40.1,38.6,41.8,36.3,41.8,33.7z M37.8,66.5c0,1.1-0.9,2-2,2c-1.1,0-2-0.9-2-2   c0-1.1,0.9-2,2-2C36.9,64.5,37.8,65.4,37.8,66.5z M35.8,35.7c-1.1,0-2-0.9-2-2c0-1.1,0.9-2,2-2c1.1,0,2,0.9,2,2   C37.8,34.8,36.9,35.7,35.8,35.7z" fill="white"/><path d="M68.5,49.9v-5.6c0-0.5-0.2-1-0.6-1.4l-7.1-7.1v-4l2.6-2.6c0.8,0.4,1.6,0.6,2.5,0.6c3.3,0,6-2.7,6-6s-2.7-6-6-6   c-3.3,0-6,2.7-6,6c0,0.9,0.2,1.8,0.6,2.6l-3.2,3.2C57,30,56.8,30.5,56.8,31v5.7c0,0.5,0.2,1,0.6,1.4l7.1,7.1v4.7   c-2.3,0.8-4,3-4,5.6c0,3.3,2.7,6,6,6c3.3,0,6-2.7,6-6C72.5,53,70.8,50.8,68.5,49.9z M65.9,21.7c1.1,0,2,0.9,2,2c0,1.1-0.9,2-2,2   c-1.1,0-2-0.9-2-2C63.9,22.6,64.8,21.7,65.9,21.7z M66.5,57.6c-1.1,0-2-0.9-2-2c0-1.1,0.9-2,2-2c1.1,0,2,0.9,2,2   C68.5,56.7,67.6,57.6,66.5,57.6z" fill="white"/><path d="M55.5,60.9v-9c0-0.5-0.2-1-0.6-1.4l-5.1-5.1V12.1c2.3-0.8,4-3,4-5.6c0-3.3-2.7-6-6-6c-3.3,0-6,2.7-6,6c0,2.6,1.7,4.8,4,5.6   v34c0,0.5,0.2,1,0.6,1.4l5.1,5.1v8.1c-2.3,0.8-4,3-4,5.6c0,3.3,2.7,6,6,6c3.3,0,6-2.7,6-6C59.5,63.9,57.8,61.7,55.5,60.9z    M47.8,8.5c-1.1,0-2-0.9-2-2c0-1.1,0.9-2,2-2c1.1,0,2,0.9,2,2C49.8,7.6,48.9,8.5,47.8,8.5z M53.5,68.5c-1.1,0-2-0.9-2-2   c0-1.1,0.9-2,2-2c1.1,0,2,0.9,2,2C55.5,67.6,54.6,68.5,53.5,68.5z" fill="white"/></g></svg>