<svg xmlns="http://www.w3.org/2000/svg" xmlns:xlink="http://www.w3.org/1999/xlink" version="1.1" x="0px" y="0px" viewBox="-5 10 100 80" enable-background="new 0 0 100 100" xml:space="preserve"><path d="M81.695,44.772c-1.282-0.517-2.608-0.886-3.962-1.129V19.54c0-1.866-1.519-3.385-3.386-3.385H14.805  c-1.867,0-3.386,1.519-3.386,3.385v42.777c0,0.495,0.113,0.962,0.305,1.387H6.601c-0.295,0-0.576,0.131-0.766,0.357  s-0.27,0.525-0.219,0.816l1.193,6.771c0.084,0.478,0.5,0.826,0.985,0.826h48.159c3.303,6.721,10.2,11.369,18.181,11.369  c11.175,0,20.266-9.09,20.266-20.264C94.399,55.259,89.412,47.876,81.695,44.772z M13.419,19.54c0-0.764,0.622-1.385,1.386-1.385  h59.543c0.764,0,1.386,0.621,1.386,1.385v23.851c-0.53-0.041-1.063-0.075-1.6-0.075c-10.211,0-18.856,7.63-20.109,17.748  c-0.104,0.827-0.155,1.674-0.155,2.518c0,0.042,0.006,0.081,0.006,0.123h-39.07c-0.764,0-1.386-0.622-1.386-1.387V19.54z   M8.633,70.476l-0.841-4.771h46.19c0.174,1.661,0.568,3.254,1.12,4.771H8.633z M74.134,81.845c-10.071,0-18.265-8.193-18.265-18.264  c0-0.761,0.047-1.525,0.14-2.271c1.13-9.118,8.922-15.994,18.125-15.994c2.359,0,4.652,0.441,6.814,1.313  c6.956,2.797,11.451,9.452,11.451,16.953C92.399,73.651,84.205,81.845,74.134,81.845z M16.209,27.546  c0.256,0,0.512-0.098,0.707-0.293l5.185-5.186c0.391-0.391,0.391-1.024,0-1.414c-0.391-0.391-1.023-0.391-1.414,0l-5.185,5.186  c-0.391,0.391-0.391,1.024,0,1.414C15.697,27.448,15.953,27.546,16.209,27.546z M44.575,22.849c0.821,0,1.489-0.667,1.489-1.488  c0-0.822-0.668-1.49-1.489-1.49s-1.489,0.668-1.489,1.49C43.086,22.181,43.754,22.849,44.575,22.849z M44.575,20.849  c0.282,0,0.511,0.229,0.511,0.512c0,0.281-0.229,0.51-0.511,0.51s-0.511-0.229-0.511-0.51  C44.064,21.078,44.293,20.849,44.575,20.849z M16.032,32.907c0.256,0,0.512-0.098,0.707-0.293l10.843-10.844  c0.391-0.391,0.391-1.023,0-1.414s-1.023-0.391-1.414,0L15.325,31.2c-0.391,0.391-0.391,1.023,0,1.414  C15.521,32.81,15.776,32.907,16.032,32.907z M50.826,67.089h-12.5c-0.552,0-1,0.447-1,1s0.448,1,1,1h12.5c0.553,0,1-0.447,1-1  S51.379,67.089,50.826,67.089z M76.778,54.939c-0.516-0.197-1.095,0.06-1.292,0.575l-5.429,14.145  c-0.198,0.516,0.06,1.094,0.575,1.292c0.118,0.045,0.239,0.066,0.358,0.066c0.401,0,0.781-0.244,0.934-0.642l5.429-14.145  C77.552,55.716,77.294,55.138,76.778,54.939z M68.364,55.052c-0.401-0.378-1.034-0.36-1.414,0.041l-6.765,7.164  c-0.363,0.386-0.363,0.987,0,1.373l6.765,7.168c0.197,0.208,0.462,0.313,0.728,0.313c0.246,0,0.493-0.091,0.687-0.272  c0.401-0.379,0.42-1.013,0.041-1.414l-6.117-6.481l6.117-6.478C68.784,56.064,68.766,55.432,68.364,55.052z M87.225,62.261  l-6.765-7.168c-0.38-0.401-1.013-0.419-1.414-0.041c-0.401,0.379-0.42,1.013-0.041,1.414l6.117,6.481l-6.117,6.478  c-0.379,0.401-0.36,1.034,0.041,1.414c0.193,0.182,0.44,0.272,0.687,0.272c0.266,0,0.53-0.105,0.728-0.313l6.765-7.164  C87.588,63.248,87.588,62.646,87.225,62.261z" fill="white"/></svg>